<svg width="79" height="32" viewBox="0 0 79 32" fill="none" xmlns="http://www.w3.org/2000/svg">
<rect width="79" height="32" rx="8" fill="#43D167"/>
<path d="M32.24 22H30.416L24.928 13.664V22H23.104V10.72H24.928L30.416 19.088V10.72H32.24V22ZM42.6398 17.168C42.6398 17.4667 42.6184 17.728 42.5758 17.952H35.7918C35.8238 18.8587 36.0744 19.5307 36.5438 19.968C37.0131 20.4053 37.5944 20.624 38.2878 20.624C38.8958 20.624 39.4078 20.4693 39.8238 20.16C40.2504 19.8507 40.5118 19.44 40.6078 18.928H42.5598C42.4424 19.5467 42.1971 20.096 41.8238 20.576C41.4504 21.056 40.9651 21.4347 40.3678 21.712C39.7704 21.9787 39.1038 22.112 38.3678 22.112C37.5144 22.112 36.7571 21.9307 36.0958 21.568C35.4451 21.2053 34.9331 20.6827 34.5598 20C34.1864 19.3173 33.9998 18.512 33.9998 17.584C33.9998 16.6667 34.1864 15.8667 34.5598 15.184C34.9331 14.5013 35.4451 13.9787 36.0958 13.616C36.7571 13.2533 37.5144 13.072 38.3678 13.072C39.2318 13.072 39.9838 13.2533 40.6238 13.616C41.2744 13.968 41.7704 14.4587 42.1118 15.088C42.4638 15.7067 42.6398 16.4 42.6398 17.168ZM40.7998 17.12C40.8211 16.544 40.7198 16.064 40.4958 15.68C40.2824 15.2853 39.9838 14.9973 39.5998 14.816C39.2264 14.624 38.8158 14.528 38.3678 14.528C37.6531 14.528 37.0558 14.7467 36.5758 15.184C36.0958 15.6213 35.8344 16.2667 35.7918 17.12H40.7998ZM56.7529 13.184L54.3049 22H52.2889L50.1129 15.184L47.9049 22H45.9049L43.4569 13.184H45.2969L46.9769 20.32L49.1849 13.184H51.1049L53.3449 20.32L55.0249 13.184H56.7529Z" fill="white"/>
</svg>
