<svg width="20" height="20" viewBox="0 0 20 20" fill="none" xmlns="http://www.w3.org/2000/svg">
<g clip-path="url(#clip0_1_643)">
<path d="M19.8289 0.172441C19.6631 0.00665981 19.4145 -0.0443167 19.197 0.0427144L0.368828 7.57387C0.153399 7.66004 0.00914133 7.8652 0.000860091 8.09711C-0.00738208 8.32899 0.121993 8.54387 0.330742 8.64512L7.75526 12.2459L11.3561 19.6705C11.4543 19.8729 11.6594 20.0007 11.8832 20.0007C11.8901 20.0007 11.8971 20.0006 11.9041 20.0003C12.136 19.9921 12.3412 19.8478 12.4273 19.6324L19.9586 0.804393C20.0456 0.586737 19.9946 0.338183 19.8289 0.172441ZM2.03539 8.16942L16.9817 2.19095L8.07432 11.0982L2.03539 8.16942ZM11.8318 17.9658L8.90295 11.9268L17.8104 3.01954L11.8318 17.9658Z" fill="#212121"/>
</g>
<defs>
<clipPath id="clip0_1_643">
<rect width="20" height="20" fill="white"/>
</clipPath>
</defs>
</svg>
