<svg width="165" height="27" viewBox="0 0 165 27" fill="none" xmlns="http://www.w3.org/2000/svg">
<path d="M153.333 9L158.333 14L153.333 19" stroke="#2E2E2E" stroke-width="2" stroke-linecap="round"/>
<path d="M2.154 7.72L5.594 17.384L9.082 7.72H10.666L6.522 19H4.682L0.554 7.72H2.154ZM11.8808 7.64C11.8808 7.37333 11.9714 7.16 12.1528 7C12.3341 6.82933 12.5741 6.744 12.8728 6.744C13.1714 6.744 13.4114 6.82933 13.5928 7C13.7741 7.16 13.8648 7.37333 13.8648 7.64C13.8648 7.90667 13.7741 8.12533 13.5928 8.296C13.4114 8.456 13.1714 8.536 12.8728 8.536C12.5741 8.536 12.3341 8.456 12.1528 8.296C11.9714 8.12533 11.8808 7.90667 11.8808 7.64ZM13.5928 10.216V19H12.1368V10.216H13.5928ZM24.0136 14.12C24.0136 14.4293 23.9923 14.696 23.9496 14.92H16.9256C16.9576 15.9227 17.2403 16.6747 17.7736 17.176C18.3176 17.6773 18.979 17.928 19.7576 17.928C20.4616 17.928 21.0483 17.752 21.5176 17.4C21.9976 17.0373 22.291 16.5573 22.3976 15.96H23.9496C23.843 16.568 23.603 17.112 23.2296 17.592C22.867 18.072 22.3923 18.4453 21.8056 18.712C21.219 18.9787 20.5576 19.112 19.8216 19.112C18.979 19.112 18.2323 18.9307 17.5816 18.568C16.931 18.2053 16.419 17.688 16.0456 17.016C15.683 16.3333 15.5016 15.5333 15.5016 14.616C15.5016 13.6987 15.683 12.8987 16.0456 12.216C16.419 11.5333 16.931 11.0107 17.5816 10.648C18.2323 10.2853 18.979 10.104 19.8216 10.104C20.675 10.104 21.4163 10.2853 22.0456 10.648C22.6856 11.0107 23.171 11.496 23.5016 12.104C23.843 12.712 24.0136 13.384 24.0136 14.12ZM22.5416 14.216C22.5736 13.5653 22.467 13.0213 22.2216 12.584C21.9763 12.1467 21.6403 11.8213 21.2136 11.608C20.787 11.3947 20.323 11.288 19.8216 11.288C19.0216 11.288 18.3496 11.5387 17.8056 12.04C17.2616 12.5307 16.9683 13.256 16.9256 14.216H22.5416ZM37.982 10.216L35.454 19H33.886L31.47 11.848L29.038 19H27.454L24.958 10.216H26.43L28.302 17.608L30.734 10.216H32.254L34.702 17.592L36.59 10.216H37.982ZM46.893 10.104C47.7463 10.104 48.4663 10.3173 49.053 10.744C49.6503 11.1707 50.0663 11.7413 50.301 12.456V10.216H51.757V19H50.301V16.76C50.0663 17.4747 49.6503 18.0453 49.053 18.472C48.4663 18.8987 47.7463 19.112 46.893 19.112C46.1143 19.112 45.421 18.9307 44.813 18.568C44.205 18.2053 43.725 17.688 43.373 17.016C43.0317 16.3333 42.861 15.5333 42.861 14.616C42.861 13.6987 43.0317 12.8987 43.373 12.216C43.725 11.5333 44.205 11.0107 44.813 10.648C45.421 10.2853 46.1143 10.104 46.893 10.104ZM47.309 11.4C46.413 11.4 45.693 11.688 45.149 12.264C44.6157 12.8293 44.349 13.6133 44.349 14.616C44.349 15.6187 44.6157 16.408 45.149 16.984C45.693 17.5493 46.413 17.832 47.309 17.832C47.885 17.832 48.397 17.6987 48.845 17.432C49.3037 17.1653 49.661 16.792 49.917 16.312C50.173 15.8213 50.301 15.256 50.301 14.616C50.301 13.976 50.173 13.4107 49.917 12.92C49.661 12.4293 49.3037 12.056 48.845 11.8C48.397 11.5333 47.885 11.4 47.309 11.4ZM55.5303 7.16V19H54.0743V7.16H55.5303ZM59.3271 7.16V19H57.8711V7.16H59.3271ZM70.4691 10.104C71.2478 10.104 71.9411 10.2853 72.5491 10.648C73.1571 11.0107 73.6318 11.5333 73.9731 12.216C74.3251 12.8987 74.5011 13.6987 74.5011 14.616C74.5011 15.5333 74.3251 16.3333 73.9731 17.016C73.6318 17.688 73.1571 18.2053 72.5491 18.568C71.9411 18.9307 71.2478 19.112 70.4691 19.112C69.6158 19.112 68.8905 18.8987 68.2931 18.472C67.7065 18.0347 67.3011 17.464 67.0771 16.76V23.16H65.6211V10.216H67.0771V12.456C67.3011 11.752 67.7065 11.1867 68.2931 10.76C68.8905 10.3227 69.6158 10.104 70.4691 10.104ZM70.0531 11.4C69.4878 11.4 68.9758 11.5333 68.5171 11.8C68.0585 12.056 67.7011 12.4293 67.4451 12.92C67.1891 13.4107 67.0611 13.976 67.0611 14.616C67.0611 15.256 67.1891 15.8213 67.4451 16.312C67.7011 16.792 68.0585 17.1653 68.5171 17.432C68.9758 17.6987 69.4878 17.832 70.0531 17.832C70.9598 17.832 71.6798 17.5493 72.2131 16.984C72.7571 16.408 73.0291 15.6187 73.0291 14.616C73.0291 13.6133 72.7571 12.8293 72.2131 12.264C71.6798 11.688 70.9598 11.4 70.0531 11.4ZM77.8584 11.992C78.1464 11.384 78.5677 10.9147 79.1224 10.584C79.677 10.2427 80.3384 10.072 81.1064 10.072V11.656H80.6584C79.837 11.656 79.165 11.8693 78.6424 12.296C78.1197 12.712 77.8584 13.4053 77.8584 14.376V19H76.4024V10.216H77.8584V11.992ZM86.527 10.104C87.3697 10.104 88.1217 10.2853 88.783 10.648C89.455 11.0107 89.9777 11.5333 90.351 12.216C90.735 12.8987 90.927 13.6987 90.927 14.616C90.927 15.5333 90.735 16.3333 90.351 17.016C89.9777 17.688 89.455 18.2053 88.783 18.568C88.1217 18.9307 87.3697 19.112 86.527 19.112C85.6843 19.112 84.927 18.9307 84.255 18.568C83.5937 18.2053 83.071 17.688 82.687 17.016C82.303 16.3333 82.111 15.5333 82.111 14.616C82.111 13.6987 82.303 12.8987 82.687 12.216C83.071 11.5333 83.5937 11.0107 84.255 10.648C84.927 10.2853 85.6843 10.104 86.527 10.104ZM86.527 11.384C86.0043 11.384 85.519 11.5013 85.071 11.736C84.6337 11.9707 84.2763 12.3333 83.999 12.824C83.7323 13.304 83.599 13.9013 83.599 14.616C83.599 15.32 83.7323 15.9173 83.999 16.408C84.2763 16.888 84.6337 17.2453 85.071 17.48C85.519 17.7147 86.0043 17.832 86.527 17.832C87.0497 17.832 87.5297 17.7147 87.967 17.48C88.415 17.2453 88.7723 16.888 89.039 16.408C89.3163 15.9173 89.455 15.32 89.455 14.616C89.455 13.9013 89.3163 13.304 89.039 12.824C88.7723 12.3333 88.415 11.9707 87.967 11.736C87.5297 11.5013 87.0497 11.384 86.527 11.384ZM96.4243 10.104C97.2776 10.104 97.9976 10.3173 98.5843 10.744C99.1816 11.1707 99.5976 11.7413 99.8323 12.456V7.16H101.288V19H99.8323V16.76C99.5976 17.4747 99.1816 18.0453 98.5843 18.472C97.9976 18.8987 97.2776 19.112 96.4243 19.112C95.6456 19.112 94.9523 18.9307 94.3443 18.568C93.7363 18.2053 93.2563 17.688 92.9043 17.016C92.5629 16.3333 92.3923 15.5333 92.3923 14.616C92.3923 13.6987 92.5629 12.8987 92.9043 12.216C93.2563 11.5333 93.7363 11.0107 94.3443 10.648C94.9523 10.2853 95.6456 10.104 96.4243 10.104ZM96.8403 11.4C95.9443 11.4 95.2243 11.688 94.6803 12.264C94.1469 12.8293 93.8803 13.6133 93.8803 14.616C93.8803 15.6187 94.1469 16.408 94.6803 16.984C95.2243 17.5493 95.9443 17.832 96.8403 17.832C97.4163 17.832 97.9283 17.6987 98.3763 17.432C98.8349 17.1653 99.1923 16.792 99.4483 16.312C99.7043 15.8213 99.8323 15.256 99.8323 14.616C99.8323 13.976 99.7043 13.4107 99.4483 12.92C99.1923 12.4293 98.8349 12.056 98.3763 11.8C97.9283 11.5333 97.4163 11.4 96.8403 11.4ZM111.414 10.216V19H109.958V16.936C109.734 17.6507 109.334 18.2 108.758 18.584C108.192 18.9573 107.531 19.144 106.774 19.144C105.76 19.144 104.939 18.8187 104.31 18.168C103.68 17.5067 103.366 16.5627 103.366 15.336V10.216H104.822V15.192C104.822 16.0667 105.046 16.744 105.494 17.224C105.942 17.6933 106.55 17.928 107.318 17.928C108.118 17.928 108.758 17.672 109.238 17.16C109.718 16.6373 109.958 15.88 109.958 14.888V10.216H111.414ZM117.634 10.104C118.754 10.104 119.682 10.4027 120.418 11C121.154 11.5973 121.607 12.3973 121.778 13.4H120.242C120.135 12.7707 119.842 12.28 119.362 11.928C118.893 11.5653 118.306 11.384 117.602 11.384C117.09 11.384 116.621 11.5013 116.194 11.736C115.778 11.9707 115.442 12.3333 115.186 12.824C114.93 13.304 114.802 13.9013 114.802 14.616C114.802 15.3307 114.93 15.9333 115.186 16.424C115.442 16.904 115.778 17.2613 116.194 17.496C116.621 17.7307 117.09 17.848 117.602 17.848C118.306 17.848 118.893 17.6667 119.362 17.304C119.842 16.9413 120.135 16.4453 120.242 15.816H121.778C121.607 16.8293 121.154 17.6347 120.418 18.232C119.682 18.8187 118.754 19.112 117.634 19.112C116.791 19.112 116.045 18.9307 115.394 18.568C114.743 18.2053 114.231 17.688 113.858 17.016C113.495 16.3333 113.314 15.5333 113.314 14.616C113.314 13.6987 113.495 12.8987 113.858 12.216C114.231 11.5333 114.743 11.0107 115.394 10.648C116.045 10.2853 116.791 10.104 117.634 10.104ZM127.876 17.72V19H126.788C125.892 19 125.22 18.7867 124.772 18.36C124.334 17.9333 124.116 17.2187 124.116 16.216V11.48H122.804V10.216H124.116V8.024H125.588V10.216H127.86V11.48H125.588V16.248C125.588 16.8133 125.689 17.2027 125.892 17.416C126.105 17.6187 126.468 17.72 126.98 17.72H127.876ZM132.404 10.104C133.396 10.104 134.191 10.3653 134.788 10.888C135.396 11.4 135.764 12.0933 135.892 12.968H134.5C134.436 12.4453 134.218 12.0187 133.844 11.688C133.482 11.3467 132.991 11.176 132.372 11.176C131.85 11.176 131.439 11.304 131.14 11.56C130.852 11.8053 130.708 12.1413 130.708 12.568C130.708 12.888 130.804 13.1493 130.996 13.352C131.199 13.544 131.444 13.6933 131.732 13.8C132.031 13.896 132.436 14.0027 132.948 14.12C133.599 14.2693 134.122 14.424 134.516 14.584C134.922 14.7333 135.263 14.9787 135.54 15.32C135.828 15.6613 135.972 16.12 135.972 16.696C135.972 17.4107 135.7 17.992 135.156 18.44C134.623 18.888 133.908 19.112 133.012 19.112C131.967 19.112 131.114 18.8613 130.452 18.36C129.791 17.8587 129.402 17.16 129.284 16.264H130.692C130.746 16.7973 130.975 17.2293 131.38 17.56C131.796 17.8907 132.34 18.056 133.012 18.056C133.514 18.056 133.903 17.928 134.18 17.672C134.468 17.416 134.612 17.08 134.612 16.664C134.612 16.3227 134.511 16.0507 134.308 15.848C134.106 15.6453 133.855 15.4907 133.556 15.384C133.258 15.2773 132.847 15.1653 132.324 15.048C131.674 14.8987 131.151 14.7493 130.756 14.6C130.372 14.4507 130.042 14.216 129.764 13.896C129.498 13.5653 129.364 13.1227 129.364 12.568C129.364 11.832 129.636 11.24 130.18 10.792C130.724 10.3333 131.466 10.104 132.404 10.104Z" fill="black"/>
</svg>
